<svg width="211" height="300" viewBox="0 0 211 300" fill="none" xmlns="http://www.w3.org/2000/svg">
<path d="M83.1333 2.59977C64.6 6.46644 48.6 15.1331 34.6 28.7331C19.2666 43.6664 7.93331 62.5998 2.73331 81.6664C-0.33336 93.1331 -0.33336 115.266 2.86664 127C9.39997 151.8 33 188.866 75.1333 240.466C94.8666 264.733 99.8 268.333 109 266.466C115.533 265.266 120.733 260.466 134.467 243C141.667 233.8 152.467 220.333 158.333 213C179.933 186.333 199.667 153.4 207.133 131.666C210.333 122.466 210.733 118.733 210.867 105C211 91.7998 210.467 87.2664 207.8 78.9998C195.8 40.5998 166.6 11.3998 131.533 2.99977C118.067 -0.200226 96.8666 -0.466892 83.1333 2.59977ZM136.333 44.8664C155.533 56.1998 161.4 92.9998 148.333 121.4C143 133.133 135.267 144.333 132.067 145.133C129.667 145.8 99.1333 135.933 79.4 128.2C74.6 126.2 73 121 73 107.133C73 76.3331 89.2666 50.1998 113 42.8664C120.333 40.7331 130.6 41.5331 136.333 44.8664ZM100.067 153.933C113 159.266 123.667 164.2 123.667 165.133C123.667 167.8 115.667 181.933 110.867 187.8C102.067 198.733 93.4 201.8 81.4 198.333C71.9333 195.533 64.6 188.733 62.3333 180.466C61.1333 175.666 61.1333 172.866 62.8666 165.4C66.0666 151.4 69.5333 144.333 73.2666 144.333C75 144.333 87 148.6 100.067 153.933Z" fill="#2D7FCB"/>
<path d="M105 62.0664C98.5999 65.2664 100.467 73.6664 107.667 73.6664C114.467 73.6664 116.733 65.933 111 62.1997C108.867 60.733 107.667 60.733 105 62.0664Z" fill="#2D7FCB"/>
<path d="M121.267 75.2664C119.267 77.2664 119.267 82.0664 121.267 84.0664C122.2 84.9997 124.6 85.6664 126.6 85.6664C131.4 85.6664 134.067 80.8664 131.8 76.4664C130.067 73.3997 123.933 72.5997 121.267 75.2664Z" fill="#2D7FCB"/>
<path d="M93.4 80.333C89.9333 81.6664 87.9333 87.7997 89.9333 90.733C92.2 94.4664 95.2667 95.6664 99.2667 94.1997C102.333 93.133 103.133 92.0664 103.4 88.0664C103.667 84.333 103.133 82.733 100.733 81.133C97.4 78.733 97.4 78.733 93.4 80.333Z" fill="#2D7FCB"/>
<path d="M131.933 95.2664C129.933 97.2664 129.933 102.066 131.933 104.066C136.733 108.866 144.333 102.6 141.133 96.4664C139.4 93.3997 134.467 92.733 131.933 95.2664Z" fill="#2D7FCB"/>
<path d="M109.267 100.6C105.267 104.6 109.267 111.933 114.733 110.466C118.867 109.533 120.867 104.066 118.333 101C116.333 98.5998 111.533 98.3331 109.267 100.6Z" fill="#2D7FCB"/>
<path d="M87 108.333C81.5333 114.466 89.6667 122.333 95.8 116.866C99 113.933 99 110.733 95.9333 107.933C92.6 105 89.9333 105.133 87 108.333Z" fill="#2D7FCB"/>
<path d="M123 117.666C118.067 123.133 124.467 131.533 131.133 128.466C137.8 125.4 135.667 115 128.333 115C126.733 115 124.333 116.2 123 117.666Z" fill="#2D7FCB"/>
<path d="M106.5 300C144.884 300 176 288.359 176 274C176 264.758 163.111 256.644 143.69 252.033C141.479 254.823 139.364 257.501 137.477 259.911C122.467 278.987 116.783 284.229 109.643 285.54C99.5872 287.579 94.1949 283.647 72.627 257.144C71.2697 255.483 69.9296 253.836 68.6074 252.202C49.5793 256.841 37 264.87 37 274C37 288.359 68.1162 300 106.5 300Z" fill="#F57223"/>
</svg>
